<svg width="153" height="192" viewBox="0 0 153 192" fill="none" xmlns="http://www.w3.org/2000/svg">
<g filter="url(#filter0_dd_74_1115)">
<path d="M42.8174 130.826L42.8136 130.825C41.9639 130.473 41.4062 129.64 41.4062 128.717V23.2812C41.4062 22.0199 42.4261 21 43.6875 21H109.312C110.574 21 111.594 22.0198 111.594 23.2812C111.594 23.2813 111.594 23.2813 111.594 23.2814V128.718C111.594 129.64 111.036 130.473 110.187 130.825L110.181 130.827C109.359 131.173 108.364 130.995 107.7 130.33C104.966 127.597 100.534 127.597 97.8005 130.33C96.9093 131.222 95.4659 131.222 94.5748 130.33C91.8412 127.597 87.409 127.597 84.6755 130.33C83.7843 131.222 82.3409 131.222 81.4498 130.33C78.7162 127.597 74.284 127.597 71.5505 130.33C70.6593 131.222 69.2159 131.222 68.3248 130.33C65.5912 127.597 61.159 127.597 58.4255 130.33C57.5343 131.222 56.0909 131.222 55.1998 130.33C52.4663 127.597 48.0341 127.597 45.3005 130.33C44.6438 130.987 43.6589 131.178 42.8174 130.826Z" fill="url(#paint0_linear_74_1115)" stroke="url(#paint1_linear_74_1115)" stroke-width="2"/>
<path d="M76.5 55.303C74.6927 55.303 73.2187 53.8321 73.2187 52.0217C73.2187 50.2114 74.6927 48.7405 76.5 48.7405C78.3073 48.7405 79.7812 50.2114 79.7812 52.0217C79.7812 53.8354 81.2488 55.303 83.0625 55.303C84.8762 55.303 86.3437 53.8354 86.3437 52.0217C86.3437 47.7495 83.5927 44.1415 79.7812 42.7824V38.8967C79.7812 37.0831 78.3137 35.6155 76.5 35.6155C74.6863 35.6155 73.2187 37.0831 73.2187 38.8967V42.7824C69.4072 44.1415 66.6562 47.7495 66.6562 52.0217C66.6562 57.4498 71.0719 61.8655 76.5 61.8655C78.3073 61.8655 79.7812 63.3364 79.7812 65.1467C79.7812 66.9571 78.3073 68.428 76.5 68.428C74.6927 68.428 73.2187 66.9571 73.2187 65.1467C73.2187 63.3331 71.7512 61.8655 69.9375 61.8655C68.1238 61.8655 66.6562 63.3331 66.6562 65.1467C66.6562 69.4189 69.4072 73.027 73.2187 74.3861V78.2717C73.2187 80.0854 74.6863 81.553 76.5 81.553C78.3137 81.553 79.7812 80.0854 79.7812 78.2717V74.3861C83.5927 73.0272 86.3437 69.4189 86.3437 65.1467C86.3437 59.7187 81.9283 55.303 76.5 55.303ZM76.5 88.1155H56.8125C54.9988 88.1155 53.5312 89.5831 53.5312 91.3967C53.5312 93.2104 54.9988 94.678 56.8125 94.678H76.5C78.3137 94.678 79.7812 93.2104 79.7812 91.3967C79.7812 89.5831 78.3137 88.1155 76.5 88.1155ZM76.5 101.24H56.8125C54.9988 101.24 53.5312 102.708 53.5312 104.522C53.5312 106.335 54.9988 107.803 56.8125 107.803H76.5C78.3137 107.803 79.7812 106.335 79.7812 104.522C79.7812 102.708 78.3137 101.24 76.5 101.24ZM89.625 94.678H96.1875C98.0012 94.678 99.4687 93.2104 99.4687 91.3967C99.4687 89.5831 98.0012 88.1155 96.1875 88.1155H89.625C87.8113 88.1155 86.3437 89.5831 86.3437 91.3967C86.3437 93.2104 87.8113 94.678 89.625 94.678ZM96.1875 101.24H89.625C87.8113 101.24 86.3437 102.708 86.3437 104.522C86.3437 106.335 87.8113 107.803 89.625 107.803H96.1875C98.0012 107.803 99.4687 106.335 99.4687 104.522C99.4687 102.708 98.0012 101.24 96.1875 101.24Z" fill="white"/>
</g>
<defs>
<filter id="filter0_dd_74_1115" x="0.40625" y="0" width="152.188" height="192" filterUnits="userSpaceOnUse" color-interpolation-filters="sRGB">
<feFlood flood-opacity="0" result="BackgroundImageFix"/>
<feColorMatrix in="SourceAlpha" type="matrix" values="0 0 0 0 0 0 0 0 0 0 0 0 0 0 0 0 0 0 127 0" result="hardAlpha"/>
<feOffset dy="20"/>
<feGaussianBlur stdDeviation="20"/>
<feColorMatrix type="matrix" values="0 0 0 0 1 0 0 0 0 0.680498 0 0 0 0 0 0 0 0 0.29 0"/>
<feBlend mode="normal" in2="BackgroundImageFix" result="effect1_dropShadow_74_1115"/>
<feColorMatrix in="SourceAlpha" type="matrix" values="0 0 0 0 0 0 0 0 0 0 0 0 0 0 0 0 0 0 127 0" result="hardAlpha"/>
<feOffset dy="5"/>
<feGaussianBlur stdDeviation="5"/>
<feColorMatrix type="matrix" values="0 0 0 0 1 0 0 0 0 0.680498 0 0 0 0 0 0 0 0 0.26 0"/>
<feBlend mode="normal" in2="effect1_dropShadow_74_1115" result="effect2_dropShadow_74_1115"/>
<feBlend mode="normal" in="SourceGraphic" in2="effect2_dropShadow_74_1115" result="shape"/>
</filter>
<linearGradient id="paint0_linear_74_1115" x1="76.5001" y1="-22.8026" x2="76.5001" y2="169.452" gradientUnits="userSpaceOnUse">
<stop offset="0.630208" stop-color="#FFAE00"/>
<stop offset="1" stop-color="#FFCD1E"/>
</linearGradient>
<linearGradient id="paint1_linear_74_1115" x1="76.5001" y1="20" x2="76.5001" y2="132" gradientUnits="userSpaceOnUse">
<stop stop-color="#FF9F00"/>
<stop offset="1" stop-color="#FFB800"/>
</linearGradient>
</defs>
</svg>
