<svg width="15" height="19" viewBox="0 0 15 19" fill="none" xmlns="http://www.w3.org/2000/svg">
<path d="M6.79688 18.3984C7.11328 18.8906 7.85156 18.8906 8.16797 18.3984C13.3008 11.0156 14.25 10.2422 14.25 7.5C14.25 3.77344 11.2266 0.75 7.5 0.75C3.73828 0.75 0.75 3.77344 0.75 7.5C0.75 10.2422 1.66406 11.0156 6.79688 18.3984ZM7.5 10.3125C5.91797 10.3125 4.6875 9.08203 4.6875 7.5C4.6875 5.95312 5.91797 4.6875 7.5 4.6875C9.04688 4.6875 10.3125 5.95312 10.3125 7.5C10.3125 9.08203 9.04688 10.3125 7.5 10.3125Z" fill="#FFB30E"/>
</svg>
