<svg width="169" height="192" viewBox="0 0 169 192" fill="none" xmlns="http://www.w3.org/2000/svg">
<g clip-path="url(#clip0_74_1064)" filter="url(#filter0_dd_74_1064)">
<path d="M84.5 131C83.7399 131 83.0315 130.631 82.6017 130.016C74.5945 118.563 67.6687 109.784 62.1151 102.743L62.1141 102.742C49.293 86.4889 42.5 77.825 42.5 62.6562C42.5 39.6954 61.3345 21 84.5 21C107.665 21 126.5 39.6954 126.5 62.6562C126.5 77.8084 119.66 86.5393 106.749 102.918L106.749 102.918C101.219 109.933 94.3234 118.681 86.3983 130.016C85.9685 130.631 85.2601 131 84.5 131Z" fill="url(#paint0_linear_74_1064)" stroke="url(#paint1_linear_74_1064)" stroke-width="2"/>
<path d="M84.5 86C71.8178 86 61.5 75.6822 61.5 63C61.5 50.3178 71.8178 40 84.5 40C97.1822 40 107.5 50.3178 107.5 63C107.5 75.6822 97.1822 86 84.5 86Z" fill="white"/>
</g>
<defs>
<filter id="filter0_dd_74_1064" x="1.5" y="0" width="166" height="192" filterUnits="userSpaceOnUse" color-interpolation-filters="sRGB">
<feFlood flood-opacity="0" result="BackgroundImageFix"/>
<feColorMatrix in="SourceAlpha" type="matrix" values="0 0 0 0 0 0 0 0 0 0 0 0 0 0 0 0 0 0 127 0" result="hardAlpha"/>
<feOffset dy="20"/>
<feGaussianBlur stdDeviation="20"/>
<feColorMatrix type="matrix" values="0 0 0 0 1 0 0 0 0 0.680498 0 0 0 0 0 0 0 0 0.29 0"/>
<feBlend mode="normal" in2="BackgroundImageFix" result="effect1_dropShadow_74_1064"/>
<feColorMatrix in="SourceAlpha" type="matrix" values="0 0 0 0 0 0 0 0 0 0 0 0 0 0 0 0 0 0 127 0" result="hardAlpha"/>
<feOffset dy="5"/>
<feGaussianBlur stdDeviation="5"/>
<feColorMatrix type="matrix" values="0 0 0 0 1 0 0 0 0 0.680498 0 0 0 0 0 0 0 0 0.26 0"/>
<feBlend mode="normal" in2="effect1_dropShadow_74_1064" result="effect2_dropShadow_74_1064"/>
<feBlend mode="normal" in="SourceGraphic" in2="effect2_dropShadow_74_1064" result="shape"/>
</filter>
<linearGradient id="paint0_linear_74_1064" x1="84.5" y1="-22.8025" x2="84.5" y2="169.452" gradientUnits="userSpaceOnUse">
<stop offset="0.630208" stop-color="#FFAE00"/>
<stop offset="1" stop-color="#FFCD1E"/>
</linearGradient>
<linearGradient id="paint1_linear_74_1064" x1="84.5" y1="20" x2="84.5" y2="132" gradientUnits="userSpaceOnUse">
<stop stop-color="#FF9F00"/>
<stop offset="1" stop-color="#FFB800"/>
</linearGradient>
<clipPath id="clip0_74_1064">
<rect width="86" height="112" fill="white" transform="translate(41.5 20)"/>
</clipPath>
</defs>
</svg>
