<svg width="312" height="38" viewBox="0 0 312 38" fill="none" xmlns="http://www.w3.org/2000/svg">
<mask id="mask0_73_229" style="mask-type:alpha" maskUnits="userSpaceOnUse" x="0" y="4" width="28" height="30">
<path d="M8.89452 30.3647C8.89452 32.366 7.27221 33.9883 5.27099 33.9883C3.26977 33.9883 1.64746 32.366 1.64746 30.3647C1.64746 28.3635 3.26977 26.7412 5.27099 26.7412C7.27221 26.7412 8.89452 28.3635 8.89452 30.3647Z" fill="#C4C4C4"/>
<path d="M26.3535 30.3647C26.3535 32.366 24.7312 33.9883 22.73 33.9883C20.7288 33.9883 19.1064 32.366 19.1064 30.3647C19.1064 28.3635 20.7288 26.7412 22.73 26.7412C24.7312 26.7412 26.3535 28.3635 26.3535 30.3647Z" fill="#C4C4C4"/>
<path fill-rule="evenodd" clip-rule="evenodd" d="M25.1913 27.7058C25.4382 27.9345 25.4094 28.3209 25.1508 28.5363C23.7802 29.6779 22.0174 30.3647 20.0941 30.3647H19.7649C19.401 30.3647 19.0998 30.0671 19.1652 29.7091C19.4737 28.0209 20.9522 26.7412 22.7296 26.7412C23.68 26.7412 24.545 27.1071 25.1913 27.7058ZM27.0987 26.1282C26.8986 26.5093 26.3844 26.543 26.0504 26.2717C25.144 25.5354 23.9883 25.0942 22.7296 25.0942C20.0414 25.0942 17.8233 27.1066 17.4996 29.7072C17.4547 30.0682 17.164 30.3647 16.8002 30.3647H11.2C10.8361 30.3647 10.5455 30.0682 10.5006 29.7072C10.1769 27.1066 7.95876 25.0942 5.27059 25.0942C4.0118 25.0942 2.85608 25.5354 1.94969 26.2718C1.61563 26.5431 1.10145 26.5094 0.901402 26.1283C0.325709 25.0317 0 23.7833 0 22.4588V20.8116C0 20.4478 0.294965 20.1528 0.658823 20.1528H27.3412C27.705 20.1528 28 20.4478 28 20.8116V22.4588C28 23.7832 27.6743 25.0316 27.0987 26.1282ZM28 17.8469C28 18.2108 27.705 18.5057 27.3412 18.5057H0.658824C0.294965 18.5057 0 18.2108 0 17.8469V13.894C0 13.5302 0.294965 13.2352 0.658823 13.2352H27.3412C27.705 13.2352 28 13.5302 28 13.894V17.8469ZM7.90588 4.01172C3.883 4.01172 0.561907 7.0164 0.0643695 10.904C0.0168356 11.2754 0.318678 11.5881 0.693122 11.5881H27.3069C27.6813 11.5881 27.9832 11.2754 27.9356 10.904C27.4381 7.0164 24.117 4.01172 20.0941 4.01172H7.90588ZM5.27059 26.7412C7.04795 26.7412 8.52644 28.0209 8.83496 29.7091C8.90037 30.0671 8.59914 30.3647 8.23528 30.3647H7.90588C5.98268 30.3647 4.21987 29.6779 2.84928 28.5364C2.59074 28.321 2.56193 27.9345 2.80878 27.7059C3.45509 27.1072 4.3201 26.7412 5.27059 26.7412Z" fill="#C4C4C4"/>
</mask>
<g mask="url(#mask0_73_229)">
<rect x="-1.64746" y="1.70605" width="33.6" height="10.8706" fill="url(#paint0_linear_73_229)"/>
<rect x="-1.64746" y="19.4941" width="33.6" height="16.4706" fill="#FFA833"/>
<rect x="-1.64746" y="12.5767" width="33.6" height="7.24706" rx="3.62353" fill="#F17228"/>
<rect x="-23.0586" y="26.7412" width="31.9529" height="7.24706" fill="#F58D00"/>
<rect x="19.1064" y="26.7412" width="31.9529" height="7.24706" fill="#F58D00"/>
<ellipse cx="8.11249" cy="6.82316" rx="1" ry="0.5" transform="rotate(-20.8548 8.11249 6.82316)" fill="white"/>
<ellipse cx="14" cy="6.5" rx="1" ry="0.5" fill="white"/>
<ellipse cx="19.1181" cy="6.91225" rx="1" ry="0.5" transform="rotate(28.1155 19.1181 6.91225)" fill="white"/>
</g>
<path d="M42.2999 30.6167V18.7637H40.2466V15.3727L42.2999 15.2172V14.3772C42.2999 13.2779 42.4866 12.2824 42.8599 11.3906C43.2332 10.4988 43.8347 9.78324 44.6643 9.24399C45.4939 8.70475 46.6035 8.43513 47.9931 8.43513C48.636 8.43513 49.2271 8.49735 49.7664 8.62179C50.3056 8.74623 50.7412 8.87067 51.073 8.99511L50.233 12.355C49.9634 12.2513 49.6938 12.1787 49.4242 12.1372C49.1545 12.075 48.8953 12.0439 48.6464 12.0439C48.0864 12.0439 47.6509 12.2202 47.3398 12.5728C47.0287 12.9046 46.8731 13.4646 46.8731 14.2527V15.186H49.6419V18.7637H46.8731V30.6167H42.2999ZM57.6701 30.99C56.3634 30.99 55.1294 30.6789 53.9679 30.0567C52.8272 29.4138 51.9043 28.4908 51.1991 27.2879C50.494 26.0642 50.1414 24.6021 50.1414 22.9014C50.1414 21.1799 50.494 19.7178 51.1991 18.5148C51.9043 17.3119 52.8272 16.3993 53.9679 15.7771C55.1294 15.1342 56.3634 14.8127 57.6701 14.8127C58.9767 14.8127 60.2004 15.1342 61.3411 15.7771C62.4818 16.3993 63.4047 17.3119 64.1099 18.5148C64.815 19.7178 65.1676 21.1799 65.1676 22.9014C65.1676 24.6021 64.815 26.0642 64.1099 27.2879C63.4047 28.4908 62.4818 29.4138 61.3411 30.0567C60.2004 30.6789 58.9767 30.99 57.6701 30.99ZM57.6701 27.2879C58.6034 27.2879 59.3085 26.8938 59.7855 26.1057C60.2626 25.2969 60.5011 24.2287 60.5011 22.9014C60.5011 21.5533 60.2626 20.4851 59.7855 19.697C59.3085 18.9089 58.6034 18.5148 57.6701 18.5148C56.716 18.5148 56.0005 18.9089 55.5235 19.697C55.0672 20.4851 54.839 21.5533 54.839 22.9014C54.839 24.2287 55.0672 25.2969 55.5235 26.1057C56.0005 26.8938 56.716 27.2879 57.6701 27.2879ZM74.1487 30.99C72.8421 30.99 71.6081 30.6789 70.4466 30.0567C69.3059 29.4138 68.383 28.4908 67.6778 27.2879C66.9727 26.0642 66.6201 24.6021 66.6201 22.9014C66.6201 21.1799 66.9727 19.7178 67.6778 18.5148C68.383 17.3119 69.3059 16.3993 70.4466 15.7771C71.6081 15.1342 72.8421 14.8127 74.1487 14.8127C75.4554 14.8127 76.679 15.1342 77.8197 15.7771C78.9604 16.3993 79.8834 17.3119 80.5885 18.5148C81.2937 19.7178 81.6463 21.1799 81.6463 22.9014C81.6463 24.6021 81.2937 26.0642 80.5885 27.2879C79.8834 28.4908 78.9604 29.4138 77.8197 30.0567C76.679 30.6789 75.4554 30.99 74.1487 30.99ZM74.1487 27.2879C75.082 27.2879 75.7872 26.8938 76.2642 26.1057C76.7413 25.2969 76.9798 24.2287 76.9798 22.9014C76.9798 21.5533 76.7413 20.4851 76.2642 19.697C75.7872 18.9089 75.082 18.5148 74.1487 18.5148C73.1947 18.5148 72.4792 18.9089 72.0021 19.697C71.5459 20.4851 71.3177 21.5533 71.3177 22.9014C71.3177 24.2287 71.5459 25.2969 72.0021 26.1057C72.4792 26.8938 73.1947 27.2879 74.1487 27.2879ZM89.5075 30.99C87.5994 30.99 86.0646 30.2745 84.9031 28.8434C83.7624 27.3916 83.1921 25.4109 83.1921 22.9014C83.1921 21.2214 83.4928 19.78 84.0943 18.5771C84.7165 17.3534 85.515 16.4201 86.4898 15.7771C87.4853 15.1342 88.5223 14.8127 89.6008 14.8127C90.4511 14.8127 91.1667 14.9579 91.7474 15.2483C92.3281 15.5386 92.8777 15.9327 93.3962 16.4304L93.2096 14.0661V8.80845H97.7828V30.6167H94.0495L93.7384 29.0923H93.614C93.0748 29.6315 92.4422 30.0878 91.7163 30.4611C90.9904 30.8137 90.2541 30.99 89.5075 30.99ZM90.6896 27.2568C91.1874 27.2568 91.6333 27.1531 92.0274 26.9457C92.4422 26.7383 92.8362 26.3753 93.2096 25.8568V19.5415C92.8155 19.1681 92.3903 18.9089 91.934 18.7637C91.4985 18.6185 91.0733 18.5459 90.6585 18.5459C89.9326 18.5459 89.2897 18.8985 88.7297 19.6037C88.1697 20.2881 87.8897 21.3666 87.8897 22.8392C87.8897 24.3532 88.1282 25.4731 88.6053 26.1991C89.103 26.9042 89.7978 27.2568 90.6896 27.2568Z" fill="#F17228"/>
<path d="M104.88 28.6167H110.449L111.662 22.6747C111.942 21.2436 112.129 19.8747 112.377 18.1015H112.502C112.751 19.8747 113 21.2436 113.28 22.6747L114.524 28.6167H120.248L123.888 13.1549H119.439L118.071 20.1236C117.791 21.6169 117.666 23.1102 117.386 24.7901H117.262C116.982 23.1102 116.702 21.6169 116.36 20.1236L114.711 13.1549H110.449L108.862 20.1236C108.52 21.5858 108.271 23.1102 107.991 24.7901H107.866C107.649 23.1102 107.462 21.6169 107.213 20.1236L105.813 13.1549H101.053L104.88 28.6167ZM129.596 28.99C131.338 28.99 132.738 28.2123 134.013 27.0612H134.138L134.48 28.6167H138.4V19.8436C138.4 14.9904 136.16 12.7816 132.178 12.7816C129.751 12.7816 127.542 13.5594 125.52 14.8038L127.2 17.9148C128.756 17.0437 130 16.6082 131.245 16.6082C132.831 16.6082 133.484 17.3548 133.609 18.6303C127.511 19.2525 124.991 21.0258 124.991 24.2924C124.991 26.8745 126.765 28.99 129.596 28.99ZM131.245 25.2568C130.187 25.2568 129.596 24.8213 129.596 23.9191C129.596 22.8302 130.529 21.9902 133.609 21.5858V24.0435C132.862 24.7901 132.209 25.2568 131.245 25.2568ZM149.059 28.9221C147.905 28.9221 146.819 28.7525 145.801 28.4131C144.783 28.0567 143.892 27.5307 143.129 26.8349C142.382 26.1222 141.788 25.2398 141.347 24.1877C140.923 23.1187 140.711 21.8799 140.711 20.4715C140.711 19.08 140.931 17.8497 141.372 16.7807C141.814 15.6947 142.407 14.7868 143.154 14.0571C143.918 13.3105 144.8 12.742 145.801 12.3517C146.802 11.9614 147.855 11.7663 148.958 11.7663C150.179 11.7663 151.231 11.9869 152.114 12.4281C153.013 12.8523 153.76 13.3614 154.354 13.9553L152.063 16.7552C151.656 16.3989 151.223 16.1104 150.765 15.8898C150.324 15.6522 149.772 15.5334 149.11 15.5334C148.55 15.5334 148.033 15.6437 147.558 15.8643C147.082 16.0849 146.667 16.3989 146.31 16.8061C145.954 17.2134 145.674 17.714 145.47 18.3079C145.284 18.9018 145.19 19.5721 145.19 20.3188C145.19 21.8799 145.538 23.0763 146.234 23.9077C146.93 24.7392 148.024 25.155 149.518 25.155C149.755 25.155 149.984 25.1295 150.205 25.0786C150.442 25.0277 150.638 24.9514 150.79 24.8495V22.5587H148.347V18.9952H154.659V26.8858C154.065 27.4458 153.276 27.9294 152.292 28.3367C151.308 28.727 150.23 28.9221 149.059 28.9221ZM164.186 28.99C168.137 28.99 171.776 26.0034 171.776 20.8703C171.776 15.7371 168.137 12.7816 164.186 12.7816C160.266 12.7816 156.626 15.7371 156.626 20.8703C156.626 26.0034 160.266 28.99 164.186 28.99ZM164.186 25.1012C162.381 25.1012 161.541 23.4524 161.541 20.8703C161.541 18.3192 162.381 16.6393 164.186 16.6393C165.99 16.6393 166.83 18.3192 166.83 20.8703C166.83 23.4524 165.99 25.1012 164.186 25.1012ZM174.036 28.6167H178.827V18.257C179.792 17.3859 180.445 16.857 181.534 16.857C182.778 16.857 183.338 17.5104 183.338 19.657V28.6167H188.16V19.0348C188.16 15.1771 186.729 12.7816 183.369 12.7816C181.254 12.7816 179.698 13.8394 178.423 15.0838H178.298L177.956 13.1549H174.036V28.6167Z" fill="#FFB30E"/>
<defs>
<linearGradient id="paint0_linear_73_229" x1="14.9996" y1="3.5" x2="14.9996" y2="21" gradientUnits="userSpaceOnUse">
<stop stop-color="#FFD16D"/>
<stop offset="1" stop-color="#FF7A00"/>
</linearGradient>
</defs>
</svg>
