<svg width="167" height="192" viewBox="0 0 167 192" fill="none" xmlns="http://www.w3.org/2000/svg">
<g clip-path="url(#clip0_74_1094)" filter="url(#filter0_dd_74_1094)">
<rect x="41" y="21" width="85" height="110" rx="16" fill="url(#paint0_linear_74_1094)" stroke="url(#paint1_linear_74_1094)" stroke-width="2"/>
<path d="M108.911 76.1077C108.911 74.1433 107.314 72.5538 105.342 72.5538H101.773V69C101.773 60.4196 95.6352 53.2415 87.499 51.5904V47.6769C87.499 45.7126 85.9029 44.123 83.9304 44.123C81.9579 44.123 80.3618 45.7126 80.3618 47.6769V51.5904C72.2256 53.2415 66.0874 60.4196 66.0874 69V72.5538H62.5188C60.5463 72.5538 58.9502 74.1433 58.9502 76.1077C58.9502 78.072 60.5463 79.6615 62.5188 79.6615H105.342C107.314 79.6615 108.911 78.072 108.911 76.1077ZM98.2048 93.8769H69.656C67.6835 93.8769 66.0874 95.4664 66.0874 97.4307C66.0874 99.3951 67.6835 100.985 69.656 100.985H98.2048C100.177 100.985 101.773 99.3951 101.773 97.4307C101.773 95.4664 100.177 93.8769 98.2048 93.8769Z" fill="white"/>
</g>
<defs>
<filter id="filter0_dd_74_1094" x="0" y="0" width="167" height="192" filterUnits="userSpaceOnUse" color-interpolation-filters="sRGB">
<feFlood flood-opacity="0" result="BackgroundImageFix"/>
<feColorMatrix in="SourceAlpha" type="matrix" values="0 0 0 0 0 0 0 0 0 0 0 0 0 0 0 0 0 0 127 0" result="hardAlpha"/>
<feOffset dy="20"/>
<feGaussianBlur stdDeviation="20"/>
<feColorMatrix type="matrix" values="0 0 0 0 1 0 0 0 0 0.680498 0 0 0 0 0 0 0 0 0.29 0"/>
<feBlend mode="normal" in2="BackgroundImageFix" result="effect1_dropShadow_74_1094"/>
<feColorMatrix in="SourceAlpha" type="matrix" values="0 0 0 0 0 0 0 0 0 0 0 0 0 0 0 0 0 0 127 0" result="hardAlpha"/>
<feOffset dy="5"/>
<feGaussianBlur stdDeviation="5"/>
<feColorMatrix type="matrix" values="0 0 0 0 1 0 0 0 0 0.680498 0 0 0 0 0 0 0 0 0.26 0"/>
<feBlend mode="normal" in2="effect1_dropShadow_74_1094" result="effect2_dropShadow_74_1094"/>
<feBlend mode="normal" in="SourceGraphic" in2="effect2_dropShadow_74_1094" result="shape"/>
</filter>
<linearGradient id="paint0_linear_74_1094" x1="83.5" y1="-22.8025" x2="83.5" y2="169.452" gradientUnits="userSpaceOnUse">
<stop offset="0.630208" stop-color="#FFAE00"/>
<stop offset="1" stop-color="#FFCD1E"/>
</linearGradient>
<linearGradient id="paint1_linear_74_1094" x1="83.5" y1="20" x2="83.5" y2="132" gradientUnits="userSpaceOnUse">
<stop stop-color="#FF9F00"/>
<stop offset="1" stop-color="#FFB800"/>
</linearGradient>
<clipPath id="clip0_74_1094">
<rect width="87" height="112" fill="white" transform="translate(40 20)"/>
</clipPath>
</defs>
</svg>
