<svg width="15" height="15" viewBox="0 0 15 15" fill="none" xmlns="http://www.w3.org/2000/svg">
<path d="M13.8086 12.3052L11.0742 9.5708C10.9375 9.46143 10.7734 9.37939 10.6094 9.37939H10.1719C10.9102 8.42236 11.375 7.21924 11.375 5.87939C11.375 2.76221 8.80469 0.191895 5.6875 0.191895C2.54297 0.191895 0 2.76221 0 5.87939C0 9.02393 2.54297 11.5669 5.6875 11.5669C7 11.5669 8.20312 11.1294 9.1875 10.3638V10.8286C9.1875 10.9927 9.24219 11.1567 9.37891 11.2935L12.0859 14.0005C12.3594 14.2739 12.7695 14.2739 13.0156 14.0005L13.7812 13.2349C14.0547 12.9888 14.0547 12.5786 13.8086 12.3052ZM5.6875 9.37939C3.74609 9.37939 2.1875 7.8208 2.1875 5.87939C2.1875 3.96533 3.74609 2.37939 5.6875 2.37939C7.60156 2.37939 9.1875 3.96533 9.1875 5.87939C9.1875 7.8208 7.60156 9.37939 5.6875 9.37939Z" fill="white"/>
</svg>
